<svg version="1.1" id="Layer_1" xmlns="http://www.w3.org/2000/svg" xmlns:xlink="http://www.w3.org/1999/xlink" x="0px" y="0px"
	 width="100%" viewBox="0 0 500 500" enable-background="new 0 0 500 500" xml:space="preserve">
<path fill="#000000" opacity="1.000000" stroke="none" 
	d="
M349.000000,501.000000 
	C232.666687,501.000000 116.833389,501.000000 1.000062,501.000000 
	C1.000041,334.333405 1.000041,167.666809 1.000021,1.000152 
	C167.666550,1.000101 334.333099,1.000101 500.999756,1.000051 
	C500.999817,167.666519 500.999817,334.333038 500.999908,500.999786 
	C450.500000,501.000000 400.000000,501.000000 349.000000,501.000000 
M175.738678,148.770111 
	C175.738678,148.770111 175.692841,148.650513 175.177338,149.088837 
	C170.858063,155.754410 168.332977,162.979279 168.165176,171.628204 
	C168.177368,172.065094 168.189575,172.501968 167.900803,173.850647 
	C167.960236,187.239655 168.019669,200.628647 167.997284,214.815445 
	C168.374252,216.873428 168.751221,218.931427 169.116287,221.807526 
	C171.323227,233.459930 177.357635,242.477325 187.314774,249.022308 
	C190.479294,251.102386 195.226761,252.421463 193.754440,258.204742 
	C193.639359,258.556030 193.703964,258.857697 193.756973,259.870300 
	C193.820602,260.907562 193.884232,261.944855 193.719849,263.741638 
	C193.702713,266.235657 193.171585,268.868988 193.800171,271.187988 
	C194.564240,274.006714 195.692627,277.931335 197.785995,278.867706 
	C200.182648,279.939697 204.380371,279.147186 206.800629,277.604156 
	C214.477524,272.709747 221.868805,267.313477 229.018311,261.665405 
	C233.466171,258.151642 238.092651,256.856659 243.697342,256.846100 
	C261.298706,256.812927 278.984497,257.301086 296.477112,255.762695 
	C315.662231,254.075424 332.473297,234.919861 332.201233,216.527573 
	C332.007080,203.398880 332.454742,190.261642 332.439636,177.128403 
	C332.437317,175.109863 331.484314,173.092422 331.104889,170.224792 
	C332.401367,157.278580 326.165131,147.695282 316.974854,139.714081 
	C314.142853,137.254684 310.340973,135.912109 306.942688,134.001038 
	C306.942688,134.001038 306.885864,134.041931 306.575684,133.761887 
	C306.132294,133.698853 305.688873,133.635803 304.781555,133.062302 
	C304.559418,133.003021 304.337250,132.943756 303.950317,132.252609 
	C303.599792,132.101410 303.249237,131.950226 302.640686,131.734314 
	C302.640686,131.734314 302.568878,131.990479 301.821442,131.694397 
	C298.853882,130.830704 295.895569,129.253418 292.917297,129.214737 
	C265.947632,128.864624 238.971848,128.502548 212.003525,128.752914 
	C200.125809,128.863205 189.318130,132.810059 181.010666,142.010178 
	C181.010666,142.010178 181.065506,142.087006 180.428345,142.302551 
	C178.822693,144.463165 177.217041,146.623779 175.738678,148.770111 
z"/>
<path fill="#44B7B5" opacity="1.000000" stroke="none" 
	d="
M330.970947,171.074463 
	C331.484314,173.092422 332.437317,175.109863 332.439636,177.128403 
	C332.454742,190.261642 332.007080,203.398880 332.201233,216.527573 
	C332.473297,234.919861 315.662231,254.075424 296.477112,255.762695 
	C278.984497,257.301086 261.298706,256.812927 243.697342,256.846100 
	C238.092651,256.856659 233.466171,258.151642 229.018311,261.665405 
	C221.868805,267.313477 214.477524,272.709747 206.800629,277.604156 
	C204.380371,279.147186 200.182648,279.939697 197.785995,278.867706 
	C195.692627,277.931335 194.564240,274.006714 193.800171,271.187988 
	C193.171585,268.868988 193.702713,266.235657 194.173645,263.506287 
	C195.468689,265.398102 196.309937,267.525238 197.517303,270.578094 
	C199.640396,267.956055 201.248383,265.970215 202.934753,264.341248 
	C203.344955,265.793488 203.676773,266.888855 204.128754,268.055176 
	C204.546677,268.166046 204.753174,268.028900 204.896820,267.810333 
	C204.925247,267.906067 204.732376,267.958038 204.951874,267.799438 
	C205.420471,267.383759 205.669571,267.126740 206.079010,266.569183 
	C212.032806,261.971344 217.711792,257.506500 223.662781,253.439682 
	C227.218903,251.009491 231.201141,249.202835 235.341309,247.340271 
	C236.334076,247.709061 236.977173,247.978653 237.620682,247.979630 
	C254.561874,248.005386 271.503204,248.030594 288.444000,247.946686 
	C289.612274,247.940887 290.776337,247.085464 292.338501,246.460327 
	C295.136200,245.792725 297.630524,245.552536 299.923737,244.742874 
	C311.415253,240.685623 318.646149,232.553360 322.435608,220.725830 
	C323.171844,214.980667 323.623322,209.489548 324.426819,204.074921 
	C326.707764,205.968781 328.636719,207.786148 331.025665,210.036865 
	C331.025665,202.301620 331.032410,194.765366 331.023346,187.229126 
	C331.016876,181.844223 330.989197,176.459351 330.970947,171.074463 
z"/>
<path fill="#44E1CF" opacity="1.000000" stroke="none" 
	d="
M168.201767,172.938858 
	C168.189575,172.501968 168.177368,172.065094 168.454941,171.014191 
	C171.060745,163.150284 173.376801,155.900406 175.692841,148.650513 
	C175.692841,148.650513 175.738678,148.770111 176.014923,148.686142 
	C177.882614,146.430450 179.474060,144.258728 181.065506,142.087006 
	C181.065506,142.087006 181.010666,142.010178 181.393555,141.963654 
	C183.779373,140.763672 185.989929,139.862228 187.748978,138.412811 
	C195.043808,132.402054 203.750946,130.313126 212.761093,130.127701 
	C230.502151,129.762650 248.256531,130.044403 265.966705,130.419006 
	C263.016876,132.185822 260.065552,133.516403 257.211090,135.029709 
	C255.720627,135.819885 254.400650,136.931595 252.535004,137.921936 
	C238.166351,137.958267 224.264206,137.846893 210.368164,138.087387 
	C207.575485,138.135727 204.805939,139.520950 202.058594,140.205261 
	C202.091446,140.120712 202.257980,140.192627 201.944397,140.186920 
	C201.065094,140.420380 200.499374,140.659531 199.649841,141.101593 
	C190.534027,145.086609 184.478683,151.723267 179.851532,160.298035 
	C179.443405,161.367615 179.264297,162.202789 179.049454,163.016937 
	C179.013718,162.995911 179.077423,163.042450 178.866302,163.328003 
	C178.548462,164.302460 178.441742,164.991348 178.380432,165.795624 
	C178.425827,165.911011 178.214890,166.041412 177.886642,166.150879 
	C177.137909,167.395752 176.367935,168.525894 176.350739,169.667374 
	C176.168320,181.779953 176.105530,193.894363 175.761169,206.075073 
	C175.677216,206.759048 175.841904,207.376236 176.009399,208.422653 
	C176.003067,210.569351 175.993942,212.286819 175.592346,214.000397 
	C172.857285,213.876938 170.317719,214.063522 171.621918,210.251648 
	C171.762451,209.840881 169.968597,208.768295 169.055267,207.534027 
	C169.032028,201.270538 169.129379,195.473251 168.989334,189.681702 
	C168.854309,184.097672 168.474197,178.519562 168.201767,172.938858 
z"/>
<path fill="#40C7C0" opacity="1.000000" stroke="none" 
	d="
M331.037903,170.649628 
	C330.989197,176.459351 331.016876,181.844223 331.023346,187.229126 
	C331.032410,194.765366 331.025665,202.301620 331.025665,210.036865 
	C328.636719,207.786148 326.707764,205.968781 324.404541,203.606827 
	C324.018768,192.354721 324.115112,181.645172 323.910675,170.941345 
	C323.866180,168.612930 322.744476,166.305084 321.945312,163.770874 
	C321.579987,163.050186 321.388275,162.546402 321.322693,161.827057 
	C321.144989,161.112900 320.841156,160.614288 320.654846,160.091354 
	C320.772369,160.067032 320.812714,160.303696 320.777374,159.982376 
	C320.416718,159.127380 320.091400,158.593689 319.466003,157.913879 
	C314.859833,149.084000 307.635254,143.764313 299.159973,139.954376 
	C301.354401,139.989075 303.288666,140.255615 305.863831,140.610504 
	C306.175903,138.783798 306.579529,136.420975 306.983185,134.058167 
	C310.340973,135.912109 314.142853,137.254684 316.974854,139.714081 
	C326.165131,147.695282 332.401367,157.278580 331.037903,170.649628 
z"/>
<path fill="#40C7C0" opacity="1.000000" stroke="none" 
	d="
M176.009827,206.008255 
	C176.105530,193.894363 176.168320,181.779953 176.350739,169.667374 
	C176.367935,168.525894 177.137909,167.395752 177.894043,166.617462 
	C178.129959,182.583542 178.064499,198.192780 177.915619,213.801254 
	C177.844742,221.233154 180.259766,227.782303 184.759003,233.573608 
	C189.548889,239.739075 194.915924,245.181992 202.856369,245.888657 
	C202.856369,252.402054 202.856369,258.193207 202.856369,263.984375 
	C201.248383,265.970215 199.640396,267.956055 197.517303,270.578094 
	C196.309937,267.525238 195.468689,265.398102 194.287659,263.126526 
	C193.884232,261.944855 193.820602,260.907562 193.883591,259.203979 
	C193.999649,258.346222 193.989090,258.154755 193.978516,257.963318 
	C195.226761,252.421463 190.479294,251.102386 187.314774,249.022308 
	C177.357635,242.477325 171.323227,233.459930 169.435272,221.544861 
	C170.831650,224.005295 171.707230,226.833252 173.050522,229.418167 
	C174.118607,231.473511 175.758377,233.231750 177.144348,235.121902 
	C177.680939,234.830765 178.217514,234.539612 178.754105,234.248474 
	C177.831009,227.500412 176.907913,220.752335 175.984802,214.004272 
	C175.993942,212.286819 176.003067,210.569351 176.013245,208.091827 
	C176.012817,206.890594 176.011322,206.449432 176.009827,206.008255 
z"/>
<path fill="#42DCCC" opacity="1.000000" stroke="none" 
	d="
M306.962952,134.029602 
	C306.579529,136.420975 306.175903,138.783798 305.863831,140.610504 
	C303.288666,140.255615 301.354401,139.989075 298.829163,139.956299 
	C297.218384,139.843430 296.198639,139.496750 294.822479,138.902634 
	C292.356781,138.426346 290.248871,138.014694 288.138031,137.999039 
	C276.426971,137.912201 264.715210,137.921631 253.003677,137.898102 
	C254.400650,136.931595 255.720627,135.819885 257.211090,135.029709 
	C260.065552,133.516403 263.016876,132.185822 266.434601,130.403976 
	C278.817078,130.682510 290.692993,131.336487 302.568878,131.990479 
	C302.568878,131.990479 302.640686,131.734314 302.943604,131.980026 
	C303.536072,132.445312 303.825592,132.664886 304.115112,132.884460 
	C304.337250,132.943756 304.559418,133.003021 305.179688,133.457886 
	C306.013855,133.916275 306.449860,133.979111 306.885864,134.041931 
	C306.885864,134.041931 306.942688,134.001038 306.962952,134.029602 
M300.926239,135.161362 
	C300.815674,135.684189 300.705109,136.207016 300.594543,136.729843 
	C301.398895,136.478653 302.203278,136.227463 303.007629,135.976257 
	C302.505676,135.688828 302.003723,135.401382 300.926239,135.161362 
z"/>
<path fill="#63D4CF" opacity="1.000000" stroke="none" 
	d="
M302.195160,131.842438 
	C290.692993,131.336487 278.817078,130.682510 266.473297,130.043579 
	C248.256531,130.044403 230.502151,129.762650 212.761093,130.127701 
	C203.750946,130.313126 195.043808,132.402054 187.748978,138.412811 
	C185.989929,139.862228 183.779373,140.763672 181.432617,141.990143 
	C189.318130,132.810059 200.125809,128.863205 212.003525,128.752914 
	C238.971848,128.502548 265.947632,128.864624 292.917297,129.214737 
	C295.895569,129.253418 298.853882,130.830704 302.195160,131.842438 
z"/>
<path fill="#42DCCC" opacity="1.000000" stroke="none" 
	d="
M175.592361,214.000397 
	C176.907913,220.752335 177.831009,227.500412 178.754105,234.248474 
	C178.217514,234.539612 177.680939,234.830765 177.144348,235.121902 
	C175.758377,233.231750 174.118607,231.473511 173.050522,229.418167 
	C171.707230,226.833252 170.831650,224.005295 169.441223,221.135803 
	C168.751221,218.931427 168.374252,216.873428 168.257370,214.103714 
	C168.702316,211.595566 168.887177,209.799133 169.072021,208.002716 
	C169.968597,208.768295 171.762451,209.840881 171.621918,210.251648 
	C170.317719,214.063522 172.857285,213.876938 175.592361,214.000397 
z"/>
<path fill="#63D4CF" opacity="1.000000" stroke="none" 
	d="
M169.055267,207.534027 
	C168.887177,209.799133 168.702316,211.595566 168.298279,213.704819 
	C168.019669,200.628647 167.960236,187.239655 168.051270,173.394745 
	C168.474197,178.519562 168.854309,184.097672 168.989334,189.681702 
	C169.129379,195.473251 169.032028,201.270538 169.055267,207.534027 
z"/>
<path fill="#63D4CF" opacity="1.000000" stroke="none" 
	d="
M175.435089,148.869675 
	C173.376801,155.900406 171.060745,163.150284 168.546509,170.698120 
	C168.332977,162.979279 170.858063,155.754410 175.435089,148.869675 
z"/>
<path fill="#63D4CF" opacity="1.000000" stroke="none" 
	d="
M180.746918,142.194778 
	C179.474060,144.258728 177.882614,146.430450 175.951294,148.693283 
	C177.217041,146.623779 178.822693,144.463165 180.746918,142.194778 
z"/>
<path fill="#40C7C0" opacity="1.000000" stroke="none" 
	d="
M306.730774,133.901917 
	C306.449860,133.979111 306.013855,133.916275 305.411682,133.713104 
	C305.688873,133.635803 306.132294,133.698853 306.730774,133.901917 
z"/>
<path fill="#63D4CF" opacity="1.000000" stroke="none" 
	d="
M304.032715,132.568542 
	C303.825592,132.664886 303.536072,132.445312 303.072632,132.012390 
	C303.249237,131.950226 303.599792,132.101410 304.032715,132.568542 
z"/>
<path fill="#44B7B5" opacity="1.000000" stroke="none" 
	d="
M193.866486,258.084045 
	C193.989090,258.154755 193.999649,258.346222 193.979248,258.823730 
	C193.703964,258.857697 193.639359,258.556030 193.866486,258.084045 
z"/>
<path fill="#000101" opacity="1.000000" stroke="none" 
	d="
M295.178894,139.150085 
	C296.198639,139.496750 297.218384,139.843430 298.568970,140.188171 
	C307.635254,143.764313 314.859833,149.084000 319.544617,158.226532 
	C320.219788,159.224762 320.516266,159.764221 320.812714,160.303696 
	C320.812714,160.303696 320.772369,160.067032 320.690125,160.436615 
	C320.804138,161.218323 321.000366,161.630463 321.196594,162.042603 
	C321.388275,162.546402 321.579987,163.050186 321.908020,164.243607 
	C322.079895,183.615433 322.115387,202.297638 322.150879,220.979843 
	C318.646149,232.553360 311.415253,240.685623 299.923737,244.742874 
	C297.630524,245.552536 295.136200,245.792725 291.881470,246.367142 
	C273.129761,246.541306 255.231262,246.643829 237.170151,246.612762 
	C236.646820,246.622345 236.286102,246.765533 235.681107,246.911469 
	C235.436844,246.914200 234.991852,247.115906 234.991852,247.115906 
	C231.201141,249.202835 227.218903,251.009491 223.662781,253.439682 
	C217.711792,257.506500 212.032806,261.971344 205.810089,266.661316 
	C205.164688,267.355347 204.948517,267.656677 204.732361,267.958038 
	C204.732376,267.958038 204.925247,267.906067 204.674347,267.854370 
	C204.423431,267.802673 204.008575,267.984253 204.008575,267.984253 
	C203.676773,266.888855 203.344955,265.793488 202.934753,264.341248 
	C202.856369,258.193207 202.856369,252.402054 202.856369,245.888657 
	C194.915924,245.181992 189.548889,239.739075 184.759003,233.573608 
	C180.259766,227.782303 177.844742,221.233154 177.915619,213.801254 
	C178.064499,198.192780 178.129959,182.583542 178.222290,166.508011 
	C178.214890,166.041412 178.425827,165.911011 178.628815,165.534424 
	C178.913666,164.452713 178.995544,163.747589 179.077423,163.042450 
	C179.077423,163.042450 179.013718,162.995911 179.309387,162.814255 
	C179.763565,161.776276 179.922058,160.919952 180.080536,160.063629 
	C184.478683,151.723267 190.534027,145.086609 199.971848,141.134445 
	C201.137772,140.707123 201.697876,140.449875 202.257980,140.192627 
	C202.257980,140.192627 202.091446,140.120712 202.496490,140.188431 
	C205.356644,139.843399 207.811264,139.075699 210.266983,139.072144 
	C238.570862,139.031174 266.874908,139.106018 295.178894,139.150085 
M226.757324,221.281921 
	C226.757324,221.281921 226.770508,221.603027 226.285263,222.119171 
	C225.249573,224.260483 224.213898,226.401810 222.992706,228.926651 
	C231.052521,228.926651 238.350952,228.912018 245.649277,228.932358 
	C249.771133,228.943848 254.195450,230.198837 255.983398,224.270416 
	C256.341278,223.083755 259.867279,222.498199 261.995758,222.293427 
	C264.422455,222.059967 267.107941,223.206512 269.331604,222.557098 
	C271.375305,221.960236 274.040222,220.058838 274.519714,218.230728 
	C275.617798,214.044037 275.933868,209.539719 275.803284,205.187302 
	C275.729736,202.737030 275.885651,201.690598 278.420685,200.967529 
	C282.457825,199.815979 282.868988,197.932800 280.371979,194.448013 
	C278.280823,191.529617 276.206360,188.599274 274.179810,184.911270 
	C273.924347,181.234940 273.668915,177.558609 273.302399,173.098373 
	C272.337372,170.589722 270.909821,168.152252 270.510345,165.556549 
	C269.826965,161.115707 267.429199,158.091187 263.571594,156.546844 
	C252.663162,152.179794 241.820770,152.212494 231.989929,159.254074 
	C218.835831,168.675980 216.288727,184.210342 225.320267,199.816788 
	C228.483109,205.282150 230.375580,210.601959 228.143127,217.340027 
	C227.972397,218.136780 227.801651,218.933533 227.980438,219.993134 
	C227.980438,219.993134 227.638565,219.720810 227.199768,220.030670 
	C227.129044,220.373032 227.058304,220.715378 226.757324,221.281921 
z"/>
<path fill="#63D4CF" opacity="1.000000" stroke="none" 
	d="
M322.435608,220.725830 
	C322.115387,202.297638 322.079895,183.615433 322.081665,164.460495 
	C322.744476,166.305084 323.866180,168.612930 323.910675,170.941345 
	C324.115112,181.645172 324.018768,192.354721 324.052582,203.530319 
	C323.623322,209.489548 323.171844,214.980667 322.435608,220.725830 
z"/>
<path fill="#63D4CF" opacity="1.000000" stroke="none" 
	d="
M235.341309,247.340271 
	C234.991852,247.115906 235.436844,246.914200 236.037964,246.919800 
	C236.870300,246.865707 237.101532,246.806046 237.332748,246.746368 
	C255.231262,246.643829 273.129761,246.541306 291.485321,246.531967 
	C290.776337,247.085464 289.612274,247.940887 288.444000,247.946686 
	C271.503204,248.030594 254.561874,248.005386 237.620682,247.979630 
	C236.977173,247.978653 236.334076,247.709061 235.341309,247.340271 
z"/>
<path fill="#40C7C0" opacity="1.000000" stroke="none" 
	d="
M204.951874,267.799438 
	C204.948517,267.656677 205.164688,267.355347 205.649750,266.961853 
	C205.669571,267.126740 205.420471,267.383759 204.951874,267.799438 
z"/>
<path fill="#40C7C0" opacity="1.000000" stroke="none" 
	d="
M204.128738,268.055176 
	C204.008575,267.984253 204.423431,267.802673 204.645905,267.758636 
	C204.753174,268.028900 204.546677,268.166046 204.128738,268.055176 
z"/>
<path fill="#63D4CF" opacity="1.000000" stroke="none" 
	d="
M294.822479,138.902634 
	C266.874908,139.106018 238.570862,139.031174 210.266983,139.072144 
	C207.811264,139.075699 205.356644,139.843399 202.463623,140.272980 
	C204.805939,139.520950 207.575485,138.135727 210.368164,138.087387 
	C224.264206,137.846893 238.166351,137.958267 252.535004,137.921936 
	C264.715210,137.921631 276.426971,137.912201 288.138031,137.999039 
	C290.248871,138.014694 292.356781,138.426346 294.822479,138.902634 
z"/>
<path fill="#42DCCC" opacity="1.000000" stroke="none" 
	d="
M175.761169,206.075073 
	C176.011322,206.449432 176.012817,206.890594 176.010452,207.662598 
	C175.841904,207.376236 175.677216,206.759048 175.761169,206.075073 
z"/>
<path fill="#40C7C0" opacity="1.000000" stroke="none" 
	d="
M179.851532,160.298035 
	C179.922058,160.919952 179.763565,161.776276 179.345123,162.835266 
	C179.264297,162.202789 179.443405,161.367615 179.851532,160.298035 
z"/>
<path fill="#40C7C0" opacity="1.000000" stroke="none" 
	d="
M178.866302,163.328003 
	C178.995544,163.747589 178.913666,164.452713 178.583405,165.419037 
	C178.441742,164.991348 178.548462,164.302460 178.866302,163.328003 
z"/>
<path fill="#63D4CF" opacity="1.000000" stroke="none" 
	d="
M201.944397,140.186920 
	C201.697876,140.449875 201.137772,140.707123 200.255661,140.931519 
	C200.499374,140.659531 201.065094,140.420380 201.944397,140.186920 
z"/>
<path fill="#63D4CF" opacity="1.000000" stroke="none" 
	d="
M321.322723,161.827057 
	C321.000366,161.630463 320.804138,161.218323 320.572601,160.460938 
	C320.841156,160.614288 321.144989,161.112900 321.322723,161.827057 
z"/>
<path fill="#63D4CF" opacity="1.000000" stroke="none" 
	d="
M320.777374,159.982376 
	C320.516266,159.764221 320.219788,159.224762 319.844666,158.372650 
	C320.091400,158.593689 320.416718,159.127380 320.777374,159.982376 
z"/>
<path fill="#40C7C0" opacity="1.000000" stroke="none" 
	d="
M301.213989,135.137650 
	C302.003723,135.401382 302.505676,135.688828 303.007629,135.976257 
	C302.203278,136.227463 301.398895,136.478653 300.594543,136.729843 
	C300.705109,136.207016 300.815674,135.684189 301.213989,135.137650 
z"/>
<path fill="#40CFC5" opacity="1.000000" stroke="none" 
	d="
M228.484268,216.824890 
	C230.375580,210.601959 228.483109,205.282150 225.320267,199.816788 
	C216.288727,184.210342 218.835831,168.675980 231.989929,159.254074 
	C241.820770,152.212494 252.663162,152.179794 263.571594,156.546844 
	C267.429199,158.091187 269.826965,161.115707 270.510345,165.556549 
	C270.909821,168.152252 272.337372,170.589722 272.986816,173.563721 
	C266.160339,177.923233 260.085724,182.118622 256.124146,189.031647 
	C254.143967,192.487076 250.483032,194.934616 247.922043,198.111847 
	C243.507187,203.589066 238.700119,208.924240 235.389709,215.040054 
	C233.862244,217.862000 232.983109,219.266891 229.864578,218.668640 
	C229.344345,217.836273 228.914307,217.330582 228.484268,216.824890 
z"/>
<path fill="#40C7C0" opacity="1.000000" stroke="none" 
	d="
M229.954773,218.995331 
	C232.983109,219.266891 233.862244,217.862000 235.389709,215.040054 
	C238.700119,208.924240 243.507187,203.589066 247.922043,198.111847 
	C250.483032,194.934616 254.143967,192.487076 256.124146,189.031647 
	C260.085724,182.118622 266.160339,177.923233 273.042358,173.955688 
	C273.668915,177.558609 273.924347,181.234940 274.129700,185.707626 
	C274.162201,187.654327 273.921509,188.957550 274.381134,189.929642 
	C276.934509,195.329849 275.243896,199.759399 271.780670,204.087143 
	C269.067017,207.478195 267.429993,212.011490 261.760620,211.508743 
	C260.914429,211.433716 259.822540,212.687057 259.047943,213.516098 
	C256.688171,216.041733 254.556213,218.791275 252.092392,221.205444 
	C249.702744,223.546936 247.276764,226.850159 244.391266,227.452255 
	C240.082413,228.351318 235.357513,227.082596 230.808121,227.061707 
	C227.584076,227.046906 227.166016,225.586182 227.981720,222.686447 
	C227.956772,221.930634 227.937714,221.498917 227.869446,220.726288 
	C227.759705,220.163818 227.699127,219.942307 227.638565,219.720810 
	C227.638565,219.720810 227.980438,219.993134 228.111038,219.824341 
	C228.812683,219.435486 229.383728,219.215393 229.954773,218.995331 
z"/>
<path fill="#44B7B5" opacity="1.000000" stroke="none" 
	d="
M227.987610,223.010559 
	C227.166016,225.586182 227.584076,227.046906 230.808121,227.061707 
	C235.357513,227.082596 240.082413,228.351318 244.391266,227.452255 
	C247.276764,226.850159 249.702744,223.546936 252.092392,221.205444 
	C254.556213,218.791275 256.688171,216.041733 259.047943,213.516098 
	C259.822540,212.687057 260.914429,211.433716 261.760620,211.508743 
	C267.429993,212.011490 269.067017,207.478195 271.780670,204.087143 
	C275.243896,199.759399 276.934509,195.329849 274.381134,189.929642 
	C273.921509,188.957550 274.162201,187.654327 274.102020,186.089111 
	C276.206360,188.599274 278.280823,191.529617 280.371979,194.448013 
	C282.868988,197.932800 282.457825,199.815979 278.420685,200.967529 
	C275.885651,201.690598 275.729736,202.737030 275.803284,205.187302 
	C275.933868,209.539719 275.617798,214.044037 274.519714,218.230728 
	C274.040222,220.058838 271.375305,221.960236 269.331604,222.557098 
	C267.107941,223.206512 264.422455,222.059967 261.995758,222.293427 
	C259.867279,222.498199 256.341278,223.083755 255.983398,224.270416 
	C254.195450,230.198837 249.771133,228.943848 245.649277,228.932358 
	C238.350952,228.912018 231.052521,228.926651 222.992706,228.926651 
	C224.213898,226.401810 225.249573,224.260483 226.712479,222.112030 
	C227.422333,222.406769 227.704971,222.708664 227.987610,223.010559 
z"/>
<path fill="#44B7B5" opacity="1.000000" stroke="none" 
	d="
M229.864578,218.668640 
	C229.383728,219.215393 228.812683,219.435486 227.936279,219.692932 
	C227.801651,218.933533 227.972397,218.136780 228.313690,217.082458 
	C228.914307,217.330582 229.344345,217.836273 229.864578,218.668640 
z"/>
<path fill="#40CFC5" opacity="1.000000" stroke="none" 
	d="
M227.981720,222.686447 
	C227.704971,222.708664 227.422333,222.406769 226.955109,221.853943 
	C226.770508,221.603027 226.757324,221.281921 227.105347,221.171631 
	C227.453369,221.061340 227.918640,221.067215 227.918640,221.067215 
	C227.937714,221.498917 227.956772,221.930634 227.981720,222.686447 
z"/>
<path fill="#44B7B5" opacity="1.000000" stroke="none" 
	d="
M227.869446,220.726288 
	C227.918640,221.067215 227.453369,221.061340 227.220474,221.059540 
	C227.058304,220.715378 227.129044,220.373032 227.419159,219.875732 
	C227.699127,219.942307 227.759705,220.163818 227.869446,220.726288 
z"/>
<path fill="#44B7B5" opacity="1.000000" stroke="none" 
	d="
M237.170151,246.612762 
	C237.101532,246.806046 236.870300,246.865707 236.282227,246.917053 
	C236.286102,246.765533 236.646820,246.622345 237.170151,246.612762 
z"/>
</svg>